Coordinates
version=1
nRows=21
nColumns=33
inDegrees=yes

Units are S.I. units (second, meters, Newtons, ...)
Angles are in degrees.

endheader
time	ground_thorax_rot_x	ground_thorax_rot_y	ground_thorax_rot_z	ground_thorax_tx	ground_thorax_ty	ground_thorax_tz	clav_prot_r	clav_elev_r	scapula_abduction_r	scapula_elevation_r	scapula_upward_rot_r	scapula_winging_r	shoulder_elv_r	plane_of_elev_r	axial_rot_r	elbow_flexion_r	pro_sup_r	wrist_flex_r	wrist_dev_r	clav_prot_l	clav_elev_l	scapula_abduction_l	scapula_elevation_l	scapula_upward_rot_l	scapula_winging_l	shoulder_elv_l	plane_of_elev_l	axial_rot_l	elbow_flexion_l	pro_sup_l	wrist_flex_l	wrist_dev_l	
1.6900	1.480782	5.181265	11.450549	-0.110830	1.036902	0.030231	4.036076	10.735384	19.360006	6.000618	24.849016	-11.067171	23.053890	-70.514384	55.758626	66.569381	-26.204256	52.809978	-24.999645	16.234783	-7.764403	-24.461267	-16.319974	-39.910207	3.899369	63.523836	-30.268566	-0.435326	70.281235	9.149437	14.611217	-15.760559	
1.7000	1.428943	5.138444	11.450133	-0.110744	1.036816	0.029936	4.084897	10.618177	19.675364	5.831843	25.062833	-11.175417	23.635158	-70.199682	55.508130	66.929240	-25.153137	49.932818	-24.999364	16.355995	-7.957742	-24.570129	-15.962714	-39.529423	4.006497	63.679275	-29.610690	-0.362848	69.740387	8.649556	15.595509	-14.654970	
1.7100	1.370406	5.093926	11.458111	-0.110686	1.036680	0.029611	4.152230	10.478592	20.036511	5.642656	25.282038	-11.295741	24.120577	-69.840878	55.260240	67.186878	-24.311132	47.134969	-24.998860	16.493216	-8.147025	-24.704729	-15.600537	-39.131806	4.126996	63.785303	-28.915935	-0.283406	69.084239	8.110554	16.562760	-13.565316	
1.7200	1.298705	5.050210	11.479741	-0.110647	1.036489	0.029268	4.235581	10.312391	20.424645	5.435098	25.489499	-11.420166	24.511080	-69.426171	55.008316	67.335801	-23.665876	44.453318	-24.997958	16.642490	-8.331943	-24.860324	-15.237010	-38.724144	4.257363	63.862851	-28.194347	-0.212783	68.308689	7.558970	17.477062	-12.538835	
1.7300	1.223268	5.004622	11.507641	-0.110628	1.036230	0.028905	4.340500	10.123180	20.852307	5.210748	25.689674	-11.553051	24.829632	-68.968810	54.770094	67.391949	-23.308411	41.858934	-24.996343	16.799265	-8.506656	-25.026921	-14.872286	-38.294637	4.394480	63.899696	-27.439128	-0.147331	67.422381	7.002442	18.405217	-11.533475	
1.7400	1.142677	4.964338	11.546788	-0.110617	1.035933	0.028534	4.460207	9.902560	21.287115	4.970654	25.857837	-11.681323	25.111712	-68.457133	54.536033	67.335373	-23.059971	39.336004	-24.993448	16.960264	-8.695231	-25.202615	-14.494457	-37.864536	4.533202	63.935934	-26.668805	-0.109435	66.426592	6.472595	19.298722	-10.589839	
1.7500	1.058771	4.928823	11.595800	-0.110611	1.035596	0.028151	4.599944	9.654520	21.745423	4.714993	26.003771	-11.811014	25.319515	-67.886095	54.338638	67.123228	-23.082796	37.100168	-24.988269	17.126432	-8.892477	-25.387656	-14.105001	-37.426803	4.674703	63.960207	-25.884889	-0.102729	65.319753	6.013581	20.111340	-9.769240	
1.7600	0.972854	4.896598	11.647560	-0.110601	1.035229	0.027754	4.757378	9.377721	22.227487	4.440812	26.133573	-11.942076	25.453863	-67.254833	54.191825	66.731373	-23.353101	35.192408	-24.978973	17.296017	-9.103736	-25.578814	-13.699569	-36.982095	4.816457	63.974920	-25.091369	-0.120526	64.104966	5.641655	20.820906	-9.073094	
1.7700	0.891553	4.861279	11.695413	-0.110581	1.034834	0.027342	4.932346	9.076751	22.742998	4.147476	26.261939	-12.078667	25.523333	-66.571025	54.114080	66.153760	-23.857910	33.536138	-24.962372	17.469483	-9.327419	-25.776296	-13.278550	-36.527923	4.958230	63.960858	-24.283742	-0.139607	62.790973	5.331334	21.475596	-8.444929	
1.7800	0.815095	4.817979	11.736059	-0.110543	1.034411	0.026915	5.119294	8.754698	23.282622	3.836871	26.392262	-12.217691	25.541598	-65.825203	54.125310	65.364059	-24.484496	31.994269	-24.932493	17.644269	-9.559911	-25.978315	-12.847858	-36.070199	5.099386	63.913230	-23.455081	-0.139999	61.382998	5.055338	22.105646	-7.838585	
1.7900	0.741716	4.767738	11.772009	-0.110489	1.033967	0.026473	5.321716	8.404662	23.847539	3.505251	26.517927	-12.357183	25.491903	-65.020529	54.250938	64.323611	-25.299744	30.553675	-24.879367	17.821631	-9.798074	-26.186815	-12.409824	-35.607733	5.240781	63.828583	-22.606362	-0.121788	59.879684	4.813337	22.714058	-7.256273	
1.8000	0.665120	4.702222	11.799901	-0.110412	1.033493	0.026005	5.540764	8.020785	24.441320	3.147068	26.641336	-12.495214	25.330934	-64.149403	54.555009	62.952584	-26.456540	29.193477	-24.783100	17.998977	-10.021802	-26.397697	-11.979220	-35.133157	5.383194	63.688234	-21.729767	-0.061427	58.281647	4.606248	23.298366	-6.709881	
1.8100	0.583513	4.627247	11.822991	-0.110324	1.032993	0.025503	5.786242	7.586781	25.064970	2.755257	26.740491	-12.625829	25.029477	-63.226398	55.106346	61.150522	-28.071802	27.891985	-24.613735	18.183205	-10.235727	-26.622970	-11.552798	-34.649057	5.531919	63.497720	-20.831696	0.033223	56.595133	4.425360	23.877274	-6.188061	
1.8200	0.489114	4.541187	11.841559	-0.110230	1.032456	0.024936	6.069792	7.074649	25.720275	2.314019	26.789844	-12.737616	24.492425	-62.265059	56.070100	58.672495	-30.475747	26.639399	-24.301767	18.377479	-10.421318	-26.869727	-11.145011	-34.151536	5.694259	63.246522	-19.903155	0.169921	54.826728	4.270455	24.463734	-5.693729	
1.8300	0.376432	4.459679	11.859634	-0.110142	1.031909	0.024283	6.409053	6.427111	26.399922	1.792188	26.732784	-12.809190	23.635971	-61.324417	57.587465	55.252308	-33.941140	25.471044	-23.766906	18.586600	-10.595607	-27.145158	-10.741773	-33.643454	5.871168	62.963861	-18.963175	0.310271	52.987104	4.170026	25.026138	-5.228907	
1.8400	0.222103	4.366071	11.874673	-0.110070	1.031352	0.023433	6.844463	5.512558	27.102146	1.111722	26.461330	-12.791516	22.123365	-60.471814	60.192037	49.980657	-39.596588	24.314197	-22.741932	18.809775	-10.715006	-27.451293	-10.374194	-33.108984	6.073044	62.613704	-17.996245	0.494154	51.086709	4.139199	25.573312	-4.807321	
1.8500	0.018129	4.266014	11.882747	-0.110012	1.030798	0.022322	7.391649	4.266780	27.825316	0.232162	25.931166	-12.655891	19.751309	-59.770243	64.220576	42.322507	-48.013279	23.300096	-21.092599	19.042672	-10.763273	-27.781853	-10.050911	-32.535955	6.301089	62.191862	-16.991668	0.697555	49.128537	4.240315	26.029262	-4.443996	
1.8600	-0.313104	4.103290	11.871981	-0.110009	1.030223	0.020507	8.273908	2.047884	28.575927	-1.214729	24.569213	-12.181674	15.277146	-59.691910	71.599695	28.541992	-62.944378	21.116393	-17.617061	19.261206	-10.577088	-28.105211	-9.870848	-31.825486	6.574464	61.553565	-15.889484	0.995371	47.122808	4.462215	26.411852	-4.085013	
1.8700	-0.762737	3.923761	11.843261	-0.110005	1.029643	0.018166	9.380772	-0.950568	29.260138	-3.115909	22.530789	-11.393438	9.374380	-60.155224	81.603534	10.292450	-82.528880	17.826872	-12.845936	19.471947	-10.185343	-28.432566	-9.822722	-31.009747	6.892698	60.766163	-14.681151	1.312809	45.059668	4.827340	26.642903	-3.720873	
1.8800	-1.315496	3.737449	11.796700	-0.109983	1.029077	0.015451	10.634185	-4.560531	29.824752	-5.374656	19.953794	-10.325523	2.668234	-61.071475	93.515987	-10.870499	-105.235604	13.326926	-7.062176	19.699745	-9.623844	-28.806785	-9.889182	-30.122794	7.272657	59.850616	-13.382303	1.695638	42.946331	5.265536	26.770992	-3.357380	
1.8900	-1.869472	3.614557	11.733079	-0.109855	1.028564	0.012991	11.722793	-7.915375	30.246262	-7.504223	17.634128	-9.259274	-2.979599	-61.880853	104.500687	-29.401972	-125.402681	8.938294	-1.893289	19.964494	-9.094138	-29.251540	-9.949096	-29.287719	7.684384	59.002209	-12.070794	2.051315	40.789497	5.745324	26.774051	-3.021639	
